<svg xmlns="http://www.w3.org/2000/svg" width="1200" height="700" viewBox="0 0 1200 700" role="img" aria-label="CFD gallery placeholder 2">
  <rect width="1200" height="700" fill="#111827"/>
  <g opacity="0.7" stroke="#334155" stroke-width="1">
    <path d="M0 140 H1200M0 280 H1200M0 420 H1200M0 560 H1200"/>
    <path d="M150 0 V700M300 0 V700M450 0 V700M600 0 V700M750 0 V700M900 0 V700M1050 0 V700"/>
  </g>
  <g opacity="0.85" fill="none" stroke-width="10">
    <path d="M220 520 C 360 360, 520 300, 700 310 C 870 320, 980 400, 1040 470" stroke="#a78bfa"/>
    <path d="M240 560 C 380 400, 540 340, 720 350 C 880 360, 990 435, 1055 510" stroke="#f59e0b" opacity="0.6"/>
  </g>
  <text x="60" y="90" fill="#e5e7eb" font-family="ui-sans-serif, system-ui" font-size="28">Placeholder figure</text>
  <text x="60" y="130" fill="#9ca3af" font-family="ui-sans-serif, system-ui" font-size="18">Replace with contour or mesh view</text>
</svg>
